<svg xmlns="http://www.w3.org/2000/svg" width="199.684" height="265.258" viewBox="0 0 199.684 265.258"><defs><style>.a{fill:#27aae1;}.b,.f{fill:#fff;font-family:Helvetica;}.b{font-size:21px;}.c{letter-spacing:-0.02em;}.d{letter-spacing:-0.07em;}.e{letter-spacing:-0.05em;}.f{font-size:14px;}.g{letter-spacing:-0.03em;}.h{letter-spacing:-0.01em;}</style></defs><g transform="translate(-827.173 -1675.382)"><path class="a" d="M368.63,351.483c16.957-42.935,17.879-94.258,1.1-137.863L543.118,148.54c31.474,83.068,30.986,178.267-2.278,262.962Z" transform="translate(459.682 1527.98)"/><path class="a" d="M541.874,413.168,368,352.534c17.264-43.134,18.277-95.018,1.1-138.947L544.188,147.91C576.131,231.7,575.643,327.786,541.874,413.168ZM370.332,351.45l170.493,59.44A366.078,366.078,0,0,0,543.1,150.224l-171.741,64.43A193,193,0,0,1,370.332,351.45Z" transform="translate(459.173 1527.472)"/><text class="b" transform="translate(846.246 1777.058)"><tspan class="c" x="0" y="0">A</tspan><tspan y="0">CCOUN</tspan><tspan class="d" y="0">T</tspan><tspan y="0">ABI</tspan><tspan class="e" y="0">L</tspan><tspan y="0">TY</tspan></text><text class="f" transform="translate(847.168 1796.12)"><tspan class="g" x="0" y="0">W</tspan><tspan y="0">e a</tspan><tspan class="h" y="0">r</tspan><tspan y="0">e e</tspan><tspan class="h" y="0">v</tspan><tspan y="0">er ans</tspan><tspan class="h" y="0">w</tspan><tspan y="0">e</tspan><tspan class="h" y="0">r</tspan><tspan y="0">able </tspan><tspan class="h" y="0">t</tspan><tspan y="0">o </tspan><tspan x="0" y="16">our stakeholders and </tspan><tspan x="0" y="32">periodically send upda</tspan><tspan class="h" y="32">te</tspan><tspan y="32">.</tspan></text></g></svg>