<svg xmlns="http://www.w3.org/2000/svg" width="27.069" height="33.319" viewBox="0 0 27.069 33.319"><defs><style>.a{fill:#fff;}</style></defs><path class="a" d="M119.689,150.29a8.08,8.08,0,0,1-1.716-.028,2.593,2.593,0,0,1-1.318-.723,28.821,28.821,0,0,1-1.716-2.411,1.589,1.589,0,0,0-1.545-.353.552.552,0,0,0-.149.37c-.055.607-.116,1.214-.127,1.826,0,1-.21,1.1.96,1.313h-6.068a1.8,1.8,0,0,0-.055-.552c-.292-.673-.629-1.329-.927-2a.519.519,0,0,0-.552-.37h-2.207a.623.623,0,0,0-.463.3,16.671,16.671,0,0,0-.552,1.655c-.188.651-.061.827.59.971H101.22c.833,0,1.1-.6,1.324-1.252.805-2.284,1.622-4.568,2.433-6.851.077-.21.171-.414.314-.767.2.359.359.59.48.833q1.594,3.238,3.2,6.465a5.472,5.472,0,0,0,.552.883,1.412,1.412,0,0,0,1.7.552.932.932,0,0,0,.469-.64c.177-1.131.667-6.239.805-7.817a32.024,32.024,0,0,1,3.917.3c1.269.248,1.655,1.655.866,2.852a6.339,6.339,0,0,1-1.136,1.2c-.237.215-.309.336-.094.607.684.855,1.335,1.738,2.025,2.593A2.593,2.593,0,0,0,119.689,150.29Zm-6-4.242a1.456,1.456,0,0,0,2.091-.645,3.31,3.31,0,0,0,.337-1.34,1.583,1.583,0,0,0-1.831-1.7c-.342,0-.474.331-.552.5C113.489,143.627,113.312,145.839,113.693,146.048Zm-8.512-2.207h-.132c-.314.971-.629,1.942-.965,2.962h2.444Z" transform="translate(-95.974 -117.004)"/><path class="a" d="M116.75,97.16l5.522,4.617-3.619,20.416-1.9,2.218Z" transform="translate(-102.937 -97.16)"/><path class="a" d="M124.958,108.24l7.469,6.112-10.277,9.819Z" transform="translate(-105.358 -102.128)"/><path class="a" d="M111.252,97.16l-5.522,4.617,3.619,20.416,1.9,2.218Z" transform="translate(-97.996 -97.16)"/><path class="a" d="M99.179,108.24l-7.469,6.112,10.277,9.819Z" transform="translate(-91.71 -102.128)"/></svg>