<svg xmlns="http://www.w3.org/2000/svg" xmlns:xlink="http://www.w3.org/1999/xlink" width="1092.85" height="799.027" viewBox="0 0 1092.85 799.027"><defs><style>.a{fill:#ef4243;}.b{fill:url(#a);}.c{fill:url(#b);}.d{fill:#ee4424;}.e{fill:#f9a253;}.f{fill:url(#c);}.g{fill:url(#d);}.h{fill:url(#e);}.i{fill:url(#f);}.j{fill:url(#g);}.k{fill:url(#h);}.l{fill:url(#i);}.m{fill:#f9b118;}.n{fill:#ffd86a;}.o{fill:url(#j);}.p{fill:url(#k);}.q{fill:url(#l);}.r{fill:url(#m);}.s{fill:url(#n);}.t{fill:url(#o);}.u{fill:url(#p);}.v{fill:#087a81;}.w{fill:#23c1db;}.x{fill:url(#q);}.y{fill:url(#r);}.z{fill:url(#s);}.aa{fill:url(#t);}.ab{fill:url(#u);}.ac{fill:#8bc760;}.ad{fill:url(#v);}.ae{fill:url(#w);}.af{fill:url(#x);}.ag,.ah,.ai,.av{fill:#0091d0;}.ag{font-size:24px;}.ag,.ah,.ai{font-family:Optima-Bold, Optima;font-weight:700;}.ah{font-size:18px;}.ai{font-size:19px;}.aj{fill:#6d6e71;}.ak,.al,.am,.an{fill:#808285;}.ak,.an{font-size:13px;}.ak,.al,.am,.an,.as{font-family:Helvetica;}.ak,.ap{letter-spacing:-0.169em;}.al{font-size:14px;}.am{font-size:15px;}.ao{fill:#58595b;}.aq{fill:#5e5e5e;}.ar{letter-spacing:0.07em;}.as{fill:#231f20;font-size:5px;letter-spacing:0.201em;}.at{fill:#008dd2;}.au{fill:#a7be39;}</style><linearGradient id="a" x1="-81.079" y1="19.098" x2="-80.413" y2="19.637" gradientUnits="objectBoundingBox"><stop offset="0.03" stop-color="#b13125"/><stop offset="0.16" stop-color="#ee4124"/><stop offset="0.34" stop-color="#f78e23"/><stop offset="0.47" stop-color="#f57b23"/><stop offset="0.76" stop-color="#f05324"/><stop offset="0.91" stop-color="#ee4424"/></linearGradient><linearGradient id="b" x1="-40.935" y1="13.688" x2="-41.299" y2="12.611" xlink:href="#a"/><linearGradient id="c" x1="-9.142" y1="-11.793" x2="-8.365" y2="-11.123" gradientUnits="objectBoundingBox"><stop offset="0.34" stop-color="#f78e23"/><stop offset="0.55" stop-color="#f47123"/><stop offset="0.84" stop-color="#f04e24"/><stop offset="1" stop-color="#ee4124"/></linearGradient><radialGradient id="d" cx="0.501" cy="0.501" r="0.506" gradientTransform="translate(-10.845 3.532) rotate(38.72)" gradientUnits="objectBoundingBox"><stop offset="0.85" stop-color="#27484b"/><stop offset="0.92" stop-color="#8d9d9e" stop-opacity="0.471"/><stop offset="1" stop-color="#e8e8e8" stop-opacity="0"/></radialGradient><linearGradient id="e" x1="-11.971" y1="-15.469" x2="-11.195" y2="-14.8" gradientUnits="objectBoundingBox"><stop offset="0" stop-color="#fff"/><stop offset="0.61" stop-color="#e8e7e7"/><stop offset="1" stop-color="#d7d6d6"/></linearGradient><linearGradient id="f" x1="-5.7" y1="-6.11" x2="-4.924" y2="-5.44" xlink:href="#c"/><radialGradient id="g" cx="0.5" cy="0.5" r="0.516" gradientTransform="matrix(-0.525, 0.851, -0.851, -0.525, -13.434, -4.43)" gradientUnits="objectBoundingBox"><stop offset="0.93" stop-color="#27484b"/><stop offset="0.96" stop-color="#8d9d9e" stop-opacity="0.471"/><stop offset="1" stop-color="#e8e8e8" stop-opacity="0"/></radialGradient><linearGradient id="h" x1="-61.961" y1="2.603" x2="-61.316" y2="3.43" gradientUnits="objectBoundingBox"><stop offset="0.02" stop-color="#f27f21"/><stop offset="0.12" stop-color="#f9b118"/><stop offset="0.24" stop-color="#fdc82e"/><stop offset="0.34" stop-color="#ffd53b"/><stop offset="0.68" stop-color="#fcbf26"/><stop offset="0.99" stop-color="#fab018"/></linearGradient><linearGradient id="i" x1="-28.42" y1="7.918" x2="-28.745" y2="4.985" xlink:href="#h"/><linearGradient id="j" x1="0.075" y1="0.133" x2="0.851" y2="0.803" gradientUnits="objectBoundingBox"><stop offset="0.34" stop-color="#ffd53b"/><stop offset="0.71" stop-color="#fcbd25"/><stop offset="0.99" stop-color="#fab018"/></linearGradient><radialGradient id="k" cx="0.5" cy="0.5" r="0.506" gradientTransform="matrix(1, 0, 0, 1, 0, 0)" xlink:href="#d"/><linearGradient id="l" x1="0.11" y1="0.164" x2="0.887" y2="0.833" xlink:href="#e"/><linearGradient id="m" x1="0.074" y1="0.133" x2="0.851" y2="0.803" xlink:href="#j"/><radialGradient id="n" cx="0.5" cy="0.5" r="0.516" gradientTransform="translate(0)" xlink:href="#g"/><linearGradient id="o" x1="-39.578" y1="0.454" x2="-38.912" y2="0.994" gradientUnits="objectBoundingBox"><stop offset="0.06" stop-color="#019ba5"/><stop offset="0.08" stop-color="#019da9"/><stop offset="0.25" stop-color="#04abcc"/><stop offset="0.34" stop-color="#05b0d9"/><stop offset="0.57" stop-color="#059fb2"/><stop offset="0.69" stop-color="#0599a3"/><stop offset="0.98" stop-color="#05777e"/></linearGradient><linearGradient id="p" x1="-19.27" y1="1.664" x2="-19.634" y2="0.586" xlink:href="#o"/><linearGradient id="q" x1="2.458" y1="15.708" x2="3.234" y2="16.377" gradientUnits="objectBoundingBox"><stop offset="0.34" stop-color="#05b0d9"/><stop offset="0.4" stop-color="#05add3"/><stop offset="0.79" stop-color="#059fb0"/><stop offset="1" stop-color="#0599a3"/></linearGradient><radialGradient id="r" cx="0.502" cy="0.5" r="0.506" gradientTransform="matrix(0.626, 0.78, -0.78, 0.626, 16.072, 4.517)" xlink:href="#d"/><linearGradient id="s" x1="3.234" y1="20.58" x2="4.01" y2="21.249" xlink:href="#e"/><linearGradient id="t" x1="1.51" y1="10.674" x2="2.287" y2="11.343" xlink:href="#q"/><radialGradient id="u" cx="0.457" cy="0.518" r="0.515" gradientTransform="matrix(0.821, -0.571, 0.571, 0.821, -6.161, 3.176)" xlink:href="#g"/><linearGradient id="v" x1="0.074" y1="0.133" x2="0.851" y2="0.803" gradientUnits="objectBoundingBox"><stop offset="0.34" stop-color="#b4d337"/><stop offset="0.56" stop-color="#94ca3e"/><stop offset="0.85" stop-color="#71c045"/><stop offset="1" stop-color="#64bc48"/></linearGradient><radialGradient id="w" cx="0.5" cy="0.5" r="0.506" gradientTransform="translate(0.21 -0.145) rotate(20.76)" xlink:href="#d"/><linearGradient id="x" x1="0.11" y1="0.164" x2="0.887" y2="0.833" xlink:href="#e"/></defs><g transform="translate(39.273 4.666)"><g transform="translate(-39.273 -4.666)"><path class="a" d="M250.507,329.412a5.323,5.323,0,0,1-4.347-8.34l.284-.39a5.323,5.323,0,0,1,9.547,2.041v.408a5.323,5.323,0,0,1-4.294,6.14h-.426A4.546,4.546,0,0,1,250.507,329.412Z" transform="translate(259.608 254.918)"/><path class="b" d="M326.5,414.217,291.19,389.481a103.984,103.984,0,0,1-42.8-67.182,104.179,104.179,0,0,1,77.775,17.23l35.312,24.736Z" transform="translate(262.062 256.671)"/><path class="c" d="M265.186,376.133,126.28,278.874l34.993-49.934L300.179,326.2a103.985,103.985,0,0,1,42.729,66.845l-.266.39A104.056,104.056,0,0,1,265.186,376.133Z" transform="translate(167.49 185.589)"/><path class="d" d="M125.261,256.713a2.609,2.609,0,0,1,3.549-.657l138.906,97.259a100.826,100.826,0,0,0,75.664,16.875h.284a106.646,106.646,0,0,1,79.727,17.745l35.33,24.594a2.626,2.626,0,1,1-3.017,4.294l-35.312-24.736a101.535,101.535,0,0,0-75.806-16.8h-.337a106.629,106.629,0,0,1-79.355-17.745L125.988,260.28a2.609,2.609,0,0,1-.728-3.567Z" transform="translate(166.38 206.259)"/><path class="e" d="M145,228.577a2.626,2.626,0,0,1,3.655-.639L287.547,325.2a106.469,106.469,0,0,1,43.812,68.513,1.886,1.886,0,0,1,0,.337h0a101.429,101.429,0,0,0,41.736,65.5l35.312,24.736a2.612,2.612,0,1,1-3,4.277l-35.33-24.719a106.717,106.717,0,0,1-43.865-68.868h0a1.37,1.37,0,0,0,0-.266h0a100.755,100.755,0,0,0-41.665-65.141L145.66,232.3a2.608,2.608,0,0,1-.657-3.726Z" transform="translate(181.595 184.445)"/><circle class="e" cx="100.4" cy="100.4" r="100.4" transform="translate(505.875 721.795) rotate(-67.38)"/><circle class="f" cx="95.485" cy="95.485" r="95.485" transform="translate(539.765 760.861) rotate(-88.282)"/><circle class="g" cx="80.384" cy="80.384" r="80.384" transform="translate(551.729 592.64) rotate(-3.72)"/><circle class="h" cx="72.842" cy="72.842" r="72.842" transform="translate(563.203 739.387) rotate(-89.14)"/><circle class="e" cx="168.274" cy="168.274" r="168.274" transform="translate(0 388.184) rotate(-45)"/><circle class="i" cx="160.023" cy="160.023" r="160.023" transform="translate(64.144 533.075) rotate(-84.82)"/><circle class="j" cx="154.522" cy="154.522" r="154.522" transform="translate(74.687 533.394) rotate(-86.65)"/><path class="a" d="M284.45,221.988a5.2,5.2,0,0,1-2.041-.373,5.324,5.324,0,0,1-3.23-4.88v-.444a5.323,5.323,0,0,1,8.979-3.8l.3.3a5.324,5.324,0,0,1,0,7.488l-.3.319a5.324,5.324,0,0,1-3.709,1.384Z" transform="translate(285.908 171.727)"/><path class="k" d="M399,257.881H355.9A103.984,103.984,0,0,1,282.29,227.4,104.2,104.2,0,0,1,355.9,196.91H399Z" transform="translate(288.317 160.783)"/><path class="l" d="M314.812,257.881H145.26V196.91H314.812a104.073,104.073,0,0,1,73.357,30.166v.5a104.073,104.073,0,0,1-73.357,30.308Z" transform="translate(182.19 160.783)"/><path class="m" d="M143.78,259a2.608,2.608,0,0,1,2.626-2.608H315.958A100.773,100.773,0,0,0,387.469,226.9h0l.2-.2h0a106.593,106.593,0,0,1,75.451-31.249h43.1a2.608,2.608,0,0,1,0,5.217H463.169a101.589,101.589,0,0,0-71.76,29.723h0l-.231.231a106.824,106.824,0,0,1-75.2,30.982H146.406A2.608,2.608,0,0,1,143.78,259Z" transform="translate(181.044 159.66)"/><path class="n" d="M143.78,198.049a2.609,2.609,0,0,1,2.626-2.609H315.958a106.824,106.824,0,0,1,75.2,30.982l.231.248h0a101.588,101.588,0,0,0,71.76,29.723h43.1a2.608,2.608,0,1,1,0,5.217H463.169a106.593,106.593,0,0,1-75.451-31.248h0a1.009,1.009,0,0,1-.2-.2h0a100.773,100.773,0,0,0-71.512-29.492h-169.6a2.608,2.608,0,0,1-2.626-2.626Z" transform="translate(181.044 159.644)"/><circle class="n" cx="100.4" cy="100.4" r="100.4" transform="translate(615.53 478.308) rotate(-84.41)"/><circle class="o" cx="95.485" cy="95.485" r="95.485" transform="translate(629.768 292.694)"/><circle class="p" cx="80.402" cy="80.402" r="80.402" transform="translate(644.851 307.777)"/><circle class="q" cx="72.842" cy="72.842" r="72.842" transform="translate(652.411 315.336)"/><circle class="n" cx="151.434" cy="151.434" r="151.434" transform="matrix(0.154, -0.988, 0.988, 0.154, 65.076, 514.538)"/><circle class="r" cx="143.999" cy="143.999" r="143.999" transform="translate(34.33 388.184) rotate(-45)"/><circle class="s" cx="139.048" cy="139.048" r="139.048" transform="translate(98.933 249.13)"/><path class="a" d="M250.77,114.548a5.323,5.323,0,0,1-4.33-2.271l-.284-.39a5.323,5.323,0,0,1,5.2-8.269h.39a5.319,5.319,0,0,1,4.312,6.14c0,.16,0,.284,0,.426a5.323,5.323,0,0,1-4.117,4.17,4.543,4.543,0,0,1-1.171.2Z" transform="translate(259.611 88.482)"/><path class="t" d="M361.478,104.722,326.165,129.44a104.073,104.073,0,0,1-77.775,17.248,104.162,104.162,0,0,1,42.8-67.182L326.5,54.77Z" transform="translate(262.062 50.698)"/><path class="u" d="M300.161,174.44,161.273,271.7,126.28,221.766l138.906-97.259a104.055,104.055,0,0,1,77.438-17.3l.284.39A104.037,104.037,0,0,1,300.161,174.44Z" transform="translate(167.49 90.128)"/><path class="v" d="M144.985,313.772a2.608,2.608,0,0,1,.657-3.638L284.53,212.875A100.755,100.755,0,0,0,326.194,147.7h0v-.266h0a106.717,106.717,0,0,1,43.936-68.939l35.33-24.718a2.626,2.626,0,0,1,3,4.312L373.147,82.824a101.429,101.429,0,0,0-41.736,65.5h0a1.882,1.882,0,0,1,0,.337A106.469,106.469,0,0,1,287.6,217.169L148.711,314.429a2.626,2.626,0,0,1-3.726-.657Z" transform="translate(181.614 49.564)"/><path class="w" d="M125.287,242.089a2.609,2.609,0,0,1,.639-3.638l138.906-97.259a106.629,106.629,0,0,1,79.355-17.745h.337a101.553,101.553,0,0,0,75.824-16.8L455.66,81.907a2.626,2.626,0,1,1,3.017,4.294L423.364,110.99a106.647,106.647,0,0,1-79.727,17.745h-.266a100.9,100.9,0,0,0-75.486,16.858L128.978,242.87a2.609,2.609,0,0,1-3.691-.781Z" transform="translate(166.354 71.295)"/><circle class="w" cx="100.4" cy="100.4" r="100.4" transform="translate(528.43 200.051) rotate(-85.05)"/><circle class="x" cx="95.485" cy="95.485" r="95.485" transform="translate(532.873 22.867) rotate(-5.54)"/><circle class="y" cx="80.529" cy="80.529" r="80.529" transform="matrix(0.06, -0.998, 0.998, 0.06, 549.382, 182.564)"/><circle class="z" cx="72.842" cy="72.842" r="72.842" transform="translate(543.369 66.053) rotate(-20.54)"/><circle class="w" cx="134.417" cy="134.417" r="134.417" transform="translate(47.881 388.184) rotate(-45)"/><circle class="aa" cx="127.834" cy="127.834" r="127.834" transform="translate(90.567 283.548) rotate(-9.64)"/><circle class="ab" cx="123.433" cy="123.433" r="123.433" transform="translate(114.548 264.746)"/><circle class="ac" cx="119.831" cy="119.831" r="119.831" transform="translate(118.15 268.348)"/><circle class="ad" cx="113.957" cy="113.957" r="113.957" transform="translate(124.024 274.221)"/><circle class="ae" cx="95.946" cy="95.946" r="95.946" transform="translate(114.232 332.493) rotate(-20.76)"/><circle class="af" cx="86.932" cy="86.932" r="86.932" transform="translate(134.197 454.1) rotate(-77.41)"/><text class="ag" transform="translate(591.298 111.634)"><tspan x="0" y="0">VISION</tspan></text><text class="ag" transform="translate(669.534 393.989)"><tspan x="0" y="0">MISSION</tspan></text><text class="ah" transform="translate(579.213 648.933)"><tspan x="0" y="0">CORPORATE</tspan></text><text class="ai" transform="translate(587.749 695.448)"><tspan x="0" y="0">GUIDELINE</tspan></text><text class="ah" transform="translate(599.833 670.972)"><tspan x="0" y="0">ACTION</tspan></text><rect class="aj" width="1.597" height="140.237" transform="translate(744.595 23.079)"/><g transform="translate(760.335 28.403)"><text class="ak" transform="translate(0 12)"><tspan x="0" y="0">T</tspan></text><text class="al" transform="translate(7.471 13)"><tspan x="0" y="0">o </tspan></text><text class="am" transform="translate(21.542 14)"><tspan x="0" y="0">provide </tspan></text><text class="am" transform="translate(79.16 14)"><tspan x="0" y="0">excellent </tspan></text><text class="al" transform="translate(145.916 13)"><tspan x="0" y="0">and </tspan></text><text class="am" transform="translate(175.567 14)"><tspan x="0" y="0">innovative </tspan></text><text class="am" transform="translate(250.237 14)"><tspan x="0" y="0">servic</tspan></text><text class="an" transform="translate(290.074 12)"><tspan x="0" y="0">-</tspan></text><text class="am" transform="translate(0 43.864)"><tspan x="0" y="0">es </tspan></text><text class="am" transform="translate(25.464 43.864)"><tspan x="0" y="0">geared </tspan></text><text class="al" transform="translate(83.081 42.864)"><tspan x="0" y="0">towards </tspan></text><text class="am" transform="translate(150.227 43.864)"><tspan x="0" y="0">sustainable </tspan></text><text class="al" transform="translate(235.456 42.864)"><tspan x="0" y="0">develop</tspan></text><text class="an" transform="translate(290.074 41.864)"><tspan x="0" y="0">-</tspan></text><text class="am" transform="translate(0 73.747)"><tspan x="0" y="0">ment through real time project delivery</tspan></text></g><rect class="ao" width="1.597" height="144.727" transform="translate(842.369 296.26)"/><text class="am" transform="translate(853.85 302.062)"><tspan class="ap" x="0" y="0">T</tspan><tspan y="0">o benchmark all the services we </tspan><tspan x="0" y="18">provide by ensuring world-class </tspan><tspan x="0" y="36">solutions through innovative meth-</tspan><tspan x="0" y="54">ods and a readiness to comply with </tspan><tspan x="0" y="72">global best standards in order to </tspan><tspan x="0" y="90">fulfil customer aspirations</tspan></text><rect class="aq" width="1.597" height="151.896" transform="translate(744.595 561.35)"/><text class="am" transform="translate(758.915 567.507)"><tspan class="ap" x="0" y="0">T</tspan><tspan y="0">o take up the challenges of building a global </tspan><tspan x="0" y="18">brand that efficiently responds to market needs </tspan><tspan x="0" y="36">through innovative and sincere</tspan><tspan class="ar" y="36" xml:space="preserve">     </tspan><tspan y="36">engagement </tspan><tspan x="0" y="54">of a multi-faceted service company acting in </tspan><tspan x="0" y="72">total compliance of statutory laws and ethics </tspan><tspan x="0" y="90">governing superior business practices</tspan></text><text class="as" transform="translate(194.08 401.465)"><tspan x="0" y="0">HOLDINGS LIMITED</tspan></text><rect class="at" width="20.903" height="1.118" transform="translate(172.574 400.724)"/><rect class="at" width="19.732" height="1.118" transform="translate(291.499 400.724)"/><path class="au" d="M81.858,229.787A15.438,15.438,0,0,1,70.235,225.6a14.569,14.569,0,0,1-3.744-10.523A13.841,13.841,0,0,1,71.1,204.022a17.248,17.248,0,0,1,11.623-3.78,20.38,20.38,0,0,1,2.591.106A25.162,25.162,0,0,0,74.406,197.9h-.5c-11.96,0-21.649,7.985-21.649,17.745s9.689,17.745,21.649,17.745h.5a24.346,24.346,0,0,0,14.3-4.454A34.126,34.126,0,0,1,81.858,229.787Z" transform="translate(110.163 161.55)"/><path class="au" d="M88.074,214.026a15.633,15.633,0,0,0-3.655-9.9h-.444a11.481,11.481,0,0,0-4.188-3,13.31,13.31,0,0,0-5.181-1.029,11.5,11.5,0,0,0-8.748,3.389,13.38,13.38,0,0,0-3.265,9.618,14.2,14.2,0,0,0,3.176,9.9,11.889,11.889,0,0,0,9.263,3.549,15.844,15.844,0,0,0,3.442-.355,12.119,12.119,0,0,0,3.052-1.047V214.505l1.774.124,1.774-.124v8.429a15.331,15.331,0,0,0,3-8.908Z" transform="translate(118.143 163.239)"/><path class="au" d="M94.853,220.188v2.147a14.2,14.2,0,0,1-3.407,1.774,11.144,11.144,0,0,1-3.744.639A9.529,9.529,0,0,1,80.6,222a10.256,10.256,0,0,1-2.768-7.524,10.647,10.647,0,0,1,2.413-7.275,8.873,8.873,0,0,1,7.1-2.963,7.684,7.684,0,0,1,5.962,2.467,11.144,11.144,0,0,1,2.573,7.772H81.491a9.866,9.866,0,0,0,1.774,6.051,6.441,6.441,0,0,0,5.519,2.5,7.6,7.6,0,0,0,3.709-.994,10.949,10.949,0,0,0,2.36-1.845Zm-13.362-7.329H92.564a10.133,10.133,0,0,0-1.029-5.022,4.436,4.436,0,0,0-4.17-2.236,5.164,5.164,0,0,0-4.418,2.289,8.517,8.517,0,0,0-1.455,4.969Z" transform="translate(129.962 166.447)"/><path class="au" d="M89.585,214.289a9.476,9.476,0,0,1,3.017-7.222,10.736,10.736,0,0,1,7.559-2.8,9.281,9.281,0,0,1,6.974,2.768,10.15,10.15,0,0,1,2.715,7.417,10.381,10.381,0,0,1-2.626,7.1,10.008,10.008,0,0,1-7.79,3.159,9.422,9.422,0,0,1-7.1-2.839A10.487,10.487,0,0,1,89.585,214.289Zm10.54-8.713a5.82,5.82,0,0,0-5.323,3,12.315,12.315,0,0,0-1.455,6.37,10.647,10.647,0,0,0,1.455,5.82,5.572,5.572,0,0,0,5.04,2.715,5.5,5.5,0,0,0,5.04-3.389,12.421,12.421,0,0,0,1.366-5.856,11.783,11.783,0,0,0-1.242-5.714,5.164,5.164,0,0,0-4.88-2.946Z" transform="translate(139.062 166.472)"/><path class="av" d="M128.3,199.57v28.516h-1.242l-2.2-2.573L106.9,205.656h-.408v22.429l-1.171-.124-1.171.177V199.57h1.633l19.75,21.471h.444V199.57l1.153.124Z" transform="translate(150.351 162.843)"/><path class="av" d="M137.861,220.173v2.147a14.037,14.037,0,0,1-3.425,1.774,11,11,0,0,1-3.744.639,9.494,9.494,0,0,1-7.1-2.751,10.168,10.168,0,0,1-2.7-7.488,10.647,10.647,0,0,1,2.413-7.275,8.872,8.872,0,0,1,7.1-2.963,7.63,7.63,0,0,1,5.945,2.467,11.055,11.055,0,0,1,2.484,7.737l-8.447-.124h-5.873a9.972,9.972,0,0,0,1.774,6.051,6.459,6.459,0,0,0,5.5,2.573,7.648,7.648,0,0,0,3.709-.994A11.355,11.355,0,0,0,137.861,220.173ZM124.5,212.844h11.073a9.937,9.937,0,0,0-1.047-5.022,4.4,4.4,0,0,0-4.152-2.254,5.128,5.128,0,0,0-4.418,2.289,8.393,8.393,0,0,0-1.455,4.986Z" transform="translate(163.309 166.462)"/><path class="av" d="M134.11,229.3V198l1.668.124,1.686-.124v31.249l-1.668-.124Z" transform="translate(173.555 161.627)"/></g></g></svg>