<svg xmlns="http://www.w3.org/2000/svg" width="264.029" height="193.154" viewBox="0 0 264.029 193.154"><defs><style>.a{fill:#27aae1;}.b,.e{fill:#fff;font-family:Helvetica;}.b{font-size:14px;}.c{letter-spacing:-0.03em;}.d{letter-spacing:-0.01em;}.e{font-size:21px;}</style></defs><g transform="translate(-484 -1408)"><path class="a" d="M378.73,191.008a198.568,198.568,0,0,0-137.248.579L178.77,24.456a376.166,376.166,0,0,1,261.769-.9Z" transform="translate(306.314 1408.392)"/><path class="a" d="M241.443,193.159c-.651-1.808-62.966-167.8-63.273-168.83C261.021-7.525,357.684-8.392,442.2,23.5c-.434,1.139-62.044,168.125-62.459,169.174C337.346,176.473,285.734,175.84,241.443,193.159ZM180.43,25.3l62.08,165.449a198.749,198.749,0,0,1,136.163-.578L439.866,24.4C358.172-5.807,263.245-5.988,180.43,25.3Z" transform="translate(305.83 1407.995)"/><text class="b" transform="translate(529.574 1492.41)"><tspan class="c" x="0" y="0">W</tspan><tspan y="0">e </tspan><tspan class="d" y="0">r</tspan><tspan y="0">emain dedica</tspan><tspan class="d" y="0">t</tspan><tspan y="0">ed </tspan><tspan class="d" y="0">t</tspan><tspan y="0">o</tspan><tspan x="0" y="16">our obligations and p</tspan><tspan class="d" y="16">r</tspan><tspan y="16">omises</tspan></text><text class="e" transform="translate(542.97 1470.257)"><tspan x="0" y="0">COMMITMENT</tspan></text></g></svg>