<svg xmlns="http://www.w3.org/2000/svg" width="249.982" height="249.765" viewBox="0 0 249.982 249.765"><defs><style>.a{fill:none;stroke:#939598;stroke-miterlimit:10;stroke-width:3px;}.b{fill:#a7be39;}.c,.e{fill:#fff;font-family:Helvetica;}.c{font-size:20px;}.d{letter-spacing:-0.03em;}.e{font-size:13px;}.f{letter-spacing:-0.03em;}.g{letter-spacing:-0.009em;}</style></defs><g transform="translate(-292.916 -1886.478)"><line class="a" x1="2.549" y2="2.549" transform="translate(440.811 1985.111)"/><path class="b" d="M250.44,512.711A357.419,357.419,0,0,1,73.15,336.432L227.988,265.35a186.926,186.926,0,0,0,92.794,92.2Z" transform="translate(220.995 1622.339)"/><path class="b" d="M251.442,514.445A359.372,359.372,0,0,1,72.47,336.522L228.9,264.68a188.01,188.01,0,0,0,93.553,92.957ZM74.892,337.408a356.5,356.5,0,0,0,175.7,174.651l69.6-153.536a187.794,187.794,0,0,1-92.107-91.456Z" transform="translate(220.446 1621.798)"/><text class="c" transform="translate(363.655 1944.345)"><tspan x="0" y="0">CUSTOME</tspan><tspan class="d" y="0">R</tspan><tspan y="0">-</tspan><tspan x="0" y="22">FOCUS</tspan></text><text class="e" transform="translate(351.199 1981.25)"><tspan class="f" x="0" y="0">W</tspan><tspan y="0">e lis</tspan><tspan class="g" y="0">t</tspan><tspan y="0">en </tspan><tspan class="g" y="0">t</tspan><tspan y="0">o our cus</tspan><tspan class="g" y="0">t</tspan><tspan y="0">omers </tspan><tspan x="0" y="15">and maintain long </tspan><tspan class="g" y="15">t</tspan><tspan y="15">erm </tspan><tspan class="g" x="0" y="30">r</tspan><tspan y="30">elationship with them, </tspan><tspan class="g" x="0" y="45">g</tspan><tspan y="45">iving them what they want </tspan><tspan x="0" y="60">as best as can b</tspan><tspan class="g" y="60">e</tspan><tspan y="60">.</tspan></text></g></svg>