<svg xmlns="http://www.w3.org/2000/svg" width="249.747" height="249.964" viewBox="0 0 249.747 249.964"><defs><style>.a{fill:#a7be39;}.b,.c{fill:#fff;font-family:Helvetica;}.b{font-size:21px;}.c{font-size:14px;}.d{letter-spacing:-0.07em;}.e{letter-spacing:-0.01em;}.f{letter-spacing:0.02em;}.g{letter-spacing:0.01em;}</style></defs><g transform="translate(-292.066 -1483.231)"><path class="a" d="M227.859,289.882,72.66,219.631A357.275,357.275,0,0,1,248.848,42.25L320,197.033a187,187,0,0,0-92.143,92.848Z" transform="translate(220.599 1442.12)"/><path class="a" d="M228.844,291.584,72,220.592A359.372,359.372,0,0,1,249.833,41.62l71.914,156.429a188.011,188.011,0,0,0-92.9,93.535Zm-154.458-71.9L227.94,289.2a187.866,187.866,0,0,1,91.4-92.089L248.929,43.952A356.534,356.534,0,0,0,74.386,219.688Z" transform="translate(220.066 1441.611)"/><text class="b" transform="translate(368.843 1596.007)"><tspan x="0" y="0">DILIGENCE</tspan></text><text class="c" transform="translate(341.744 1614.382)"><tspan class="d" x="0" y="0">T</tspan><tspan y="0">o be mas</tspan><tspan class="e" y="0">t</tspan><tspan y="0">er of </tspan><tspan class="e" y="0">c</tspan><tspan y="0">onsis</tspan><tspan class="e" y="0">t</tspan><tspan y="0">en</tspan><tspan class="f" y="0">c</tspan><tspan y="0">y </tspan><tspan x="0" y="16">and quali</tspan><tspan class="g" y="16">t</tspan><tspan y="16">y </tspan><tspan class="e" y="16">t</tspan><tspan y="16">o a</tspan><tspan class="e" y="16">cc</tspan><tspan y="16">omplish </tspan><tspan x="0" y="32">our obje</tspan><tspan class="g" y="32">c</tspan><tspan y="32">ti</tspan><tspan class="e" y="32">v</tspan><tspan y="32">e</tspan><tspan class="e" y="32">s</tspan><tspan y="32">.</tspan></text></g></svg>