<svg xmlns="http://www.w3.org/2000/svg" width="34.027" height="39.152" viewBox="0 0 34.027 39.152"><defs><style>.a,.b{fill:none;stroke:#fff;stroke-miterlimit:10;}.a{stroke-width:0.75px;}.b{stroke-width:0.5px;}.c{fill:#fff;}</style></defs><g transform="translate(0.385 0.383)"><path class="a" d="M113.408,508.163c.513,5.55,5.82,7.072,7.072,7.171s8.468,0,8.468,0,.48-6.427-5.268-8.484-5.737-3.74-5.7-6.62A7.855,7.855,0,0,0,113.408,508.163Z" transform="translate(-107.15 -498.001)"/><path class="a" d="M118.78,501.36s-3.933,3.5-2.207,8.418c.805,2.273,3.547,4.645,8.275,6.068h4.606s.143-.552-1.329-1.329c-2.929-1.605-6.476-2.808-8.826-4.672a4.655,4.655,0,0,1-1.418-5.141Z" transform="translate(-108.39 -498.508)"/><path class="a" d="M120.643,501.36c-1.655,6.465,2.929,7.232,5.136,8.23s5.252,2.515,5.561,6.234" transform="translate(-110.253 -498.508)"/><path class="a" d="M119.124,496.267c1.07-.314,1.727.336,1.23,1.87-.154.386.11.474.11.474h8.826V500.5a1.208,1.208,0,0,1-1.346,1.1c-.91,0-1.4-1.192-1.4-1.192a7.572,7.572,0,0,0-.971-.033c-.949.05-1.754.469-1.688,1.627.055.954.949,1.247,1.909,1.3,1.136.061,2.858,0,2.858,0s.028,1.622-1.1,1.594c-5.445-.132-7.607-3.525-7.535-5.864,0-.276.325-.684-.447-.618A1.1,1.1,0,1,1,119.124,496.267Z" transform="translate(-109.313 -496.19)"/><path class="b" d="M124.171,502.828a.927.927,0,0,0,1.021-.778H123.15a.927.927,0,0,0,1.021.778" transform="translate(-111.535 -498.817)"/><path class="a" d="M143.7,527.58h-14s3.542,1.539,4.75,4.667a25.241,25.241,0,0,0,3.337-1.418h2.5l.75,1.429H142.8Z" transform="translate(-114.472 -510.264)"/><path class="a" d="M119.567,527.386a10.524,10.524,0,0,1-4.965-.756c-1.352,7.784-5.45,6.62-5.45,6.62s-.182,5.191-.254,5.632c-.607,1.462-2.758,2.207-2.758,2.207l3.751,6.813h5.2c.1-1.793-1.2-2.058-1.2-2.058h-2.631l-1.5-2.819c4.242-.513,4.59-3.034,4.59-3.034v-3.917s1.809.05,2.284,0c4.413-.618,6-5.34,6.035-5.886A8.027,8.027,0,0,0,119.567,527.386Z" transform="translate(-103.909 -509.838)"/><path class="a" d="M121.15,545.79V543.1s3.271.138,4.893-1.258c0,0,2.731,4.3,2.9,4.937s.386,1.865-1.451,3.922c.055.138,1.561,1.837,1.561,1.837h2.8s1.346.127,1.1,2.151h-5.263l-3.933-4.485s1.015-.6.634-1.534S121.15,545.79,121.15,545.79Z" transform="translate(-110.638 -516.658)"/><path class="a" d="M102.1,510l1.909.552a3.4,3.4,0,0,1-1.76,3.31c-.182,0-.055-3.31-.143-4.413-.314-3.911,4.843-5.825,4.788-.149,0,1.451-.872,3.31-1.975,6.879-1.92,6.239,2.416,7.646,2.416,7.646" transform="translate(-102.095 -500.469)"/><line class="a" x2="0.055" y2="16.731" transform="translate(27.193 21.955)"/><line class="a" y2="2.339" transform="translate(27.193 14.839)"/><line class="a" x1="3.58" y2="16.439" transform="translate(24.121 21.955)"/><line class="a" x1="0.513" y2="2.047" transform="translate(28.948 15.132)"/><path class="c" d="M149.25,519.112a8.223,8.223,0,0,1-1.484-1.572,6.814,6.814,0,0,1-.11-1.809,8.217,8.217,0,0,1,1.594,1.694,6,6,0,0,1,0,1.688" transform="translate(-122.514 -504.951)"/><path class="c" d="M149.25,513.992a8.224,8.224,0,0,1-1.484-1.572,6.813,6.813,0,0,1-.11-1.809,8.3,8.3,0,0,1,1.594,1.688,6.029,6.029,0,0,1,0,1.694" transform="translate(-122.514 -502.656)"/><path class="c" d="M149.25,509.252a8.225,8.225,0,0,1-1.484-1.572,6.824,6.824,0,0,1-.11-1.809,8.157,8.157,0,0,1,1.594,1.688,6.029,6.029,0,0,1,0,1.694" transform="translate(-122.514 -500.53)"/><path class="c" d="M149.25,504.407a8.225,8.225,0,0,1-1.484-1.572,6.863,6.863,0,0,1-.11-1.815,8.216,8.216,0,0,1,1.594,1.694,6.035,6.035,0,0,1,0,1.694" transform="translate(-122.514 -498.356)"/><path class="c" d="M158.278,516.93a8.273,8.273,0,0,0-1.721,1.307,7.011,7.011,0,0,0-.4,1.771A8.228,8.228,0,0,0,158,518.6a6.068,6.068,0,0,0,.276-1.655" transform="translate(-126.335 -505.489)"/><path class="c" d="M159.278,512.32a8.274,8.274,0,0,0-1.716,1.307,6.834,6.834,0,0,0-.4,1.771A8.061,8.061,0,0,0,159,513.986a5.825,5.825,0,0,0,.276-1.655" transform="translate(-126.784 -503.422)"/><path class="c" d="M160.2,507.54a8.341,8.341,0,0,0-1.721,1.313,6.961,6.961,0,0,0-.4,1.771,8.227,8.227,0,0,0,1.842-1.412,6.068,6.068,0,0,0,.276-1.655" transform="translate(-127.196 -501.279)"/><path class="c" d="M161.358,502.67a8.144,8.144,0,0,0-1.721,1.313,6.927,6.927,0,0,0-.4,1.765,8.061,8.061,0,0,0,1.842-1.412,6.03,6.03,0,0,0,.276-1.655" transform="translate(-127.716 -499.095)"/><path class="c" d="M151.7,509.252a8.226,8.226,0,0,0,1.484-1.572,7.007,7.007,0,0,0,.1-1.809,8.164,8.164,0,0,0-1.589,1.688,6.029,6.029,0,0,0,0,1.694" transform="translate(-124.309 -500.53)"/><path class="c" d="M154.531,512.641a7.909,7.909,0,0,0-1.208-1.743v-.028h0v.028a7.855,7.855,0,0,0-1.561,1.655,6,6,0,0,0,0,1.688,9.633,9.633,0,0,0,1.418-1.456,10.918,10.918,0,0,0,1.23,1.655,6.989,6.989,0,0,0,.154-1.809" transform="translate(-124.336 -502.772)"/><path class="c" d="M153.765,517.473a5.922,5.922,0,0,0-1.01-1.363v.061a7.673,7.673,0,0,0-1.462,1.76,5.913,5.913,0,0,0,.1,1.688,12.878,12.878,0,0,0,1.147-1.263,8.311,8.311,0,0,0,.96,1.423,8.233,8.233,0,0,0,.27-2.306" transform="translate(-124.145 -505.121)"/><path class="c" d="M151.7,504.407a8.225,8.225,0,0,0,1.484-1.572,7.05,7.05,0,0,0,.1-1.815,8.225,8.225,0,0,0-1.589,1.694,6.035,6.035,0,0,0,0,1.694" transform="translate(-124.31 -498.356)"/><path class="c" d="M156.076,509.662a8.523,8.523,0,0,1-1.136-1.914,7.171,7.171,0,0,1,.292-1.848,8.419,8.419,0,0,1,1.225,2.058,6.206,6.206,0,0,1-.381,1.7" transform="translate(-125.788 -500.544)"/><path class="c" d="M157.2,504.8a8.56,8.56,0,0,1-1.142-1.92,7.105,7.105,0,0,1,.3-1.848,8.368,8.368,0,0,1,1.225,2.063,6.256,6.256,0,0,1-.381,1.7" transform="translate(-126.291 -498.36)"/><path class="c" d="M150.714,496.47c.877,1.655.656,3.045,0,3.045s-.987-1.523,0-3.045" transform="translate(-123.614 -496.316)"/><path class="c" d="M160.034,497.39c.552,1.776.1,3.117-.552,3s-.7-1.655.552-3" transform="translate(-127.622 -496.728)"/><line class="a" x1="21.431" transform="translate(5.812 38.394)"/></g></svg>