<svg xmlns="http://www.w3.org/2000/svg" width="249.729" height="250" viewBox="0 0 249.729 250"><defs><style>.a{fill:none;stroke:#939598;stroke-miterlimit:10;stroke-width:3px;}.b{fill:#a7be39;}.c,.e{fill:#fff;font-family:Helvetica;}.c{font-size:21px;}.d{letter-spacing:-0.04em;}.e{font-size:14px;}.f{letter-spacing:-0.03em;}.g{letter-spacing:-0.01em;}.h{letter-spacing:0.01em;}.i{letter-spacing:0.03em;}</style></defs><g transform="translate(-696.253 -1885.501)"><line class="a" x2="2.567" y2="2.549" transform="translate(794.398 1985.111)"/><path class="b" d="M367.232,512.414,296.24,357.54a186.926,186.926,0,0,0,92.2-92.74l155.127,70.5a357.346,357.346,0,0,1-176.332,177.11Z" transform="translate(401.206 1621.895)"/><path class="b" d="M367.331,514.14c-.488-1.03-71.318-155.47-71.751-156.5a187.885,187.885,0,0,0,92.957-93.5l156.772,71.173A359.336,359.336,0,0,1,367.331,514.14ZM297.966,358.525l70.251,153.229A356.534,356.534,0,0,0,542.959,336.2l-153.482-69.69a187.812,187.812,0,0,1-91.511,92.017Z" transform="translate(400.673 1621.362)"/><text class="c" transform="translate(759.706 1977.036)"><tspan x="0" y="0">E</tspan><tspan class="d" y="0">X</tspan><tspan y="0">CELLENCE</tspan></text><text class="e" transform="translate(732.608 1995.393)"><tspan class="f" x="0" y="0">W</tspan><tspan y="0">e ensu</tspan><tspan class="g" y="0">r</tspan><tspan y="0">e superiori</tspan><tspan class="h" y="0">t</tspan><tspan y="0">y and </tspan><tspan x="0" y="16">maximum attainable le</tspan><tspan class="g" y="16">v</tspan><tspan y="16">el of </tspan><tspan x="0" y="32">pe</tspan><tspan class="i" y="32">r</tspan><tspan class="g" y="32">f</tspan><tspan y="32">e</tspan><tspan class="h" y="32">c</tspan><tspan y="32">tion.</tspan></text></g></svg>