<svg xmlns="http://www.w3.org/2000/svg" width="40.734" height="30.877" viewBox="0 0 40.734 30.877"><defs><style>.a{fill:#fff;}</style></defs><path class="a" d="M557.628,320.973a14.258,14.258,0,0,1,22.794-16.831,17.84,17.84,0,0,0-15.093,3.4,19.181,19.181,0,0,0-7.7,13.427Z" transform="translate(-539.688 -295.109)"/><path class="a" d="M553.511,291.562a15.17,15.17,0,0,0-7.811,10.481,16,16,0,0,0,2.416,12.771c-2.24-.127-6.035-3.861-7.216-7.144a11.48,11.48,0,0,1,2.675-12.566C546.346,292.152,551.233,290.944,553.511,291.562Z" transform="translate(-532.631 -291.405)"/><path class="a" d="M528.841,311a10.811,10.811,0,0,0,.331,4.606,11.227,11.227,0,0,0,2.207,4.148,12.307,12.307,0,0,0,3.564,2.94,13.067,13.067,0,0,0,4.485,1.352,8.681,8.681,0,0,1-10.95-1.859A8.578,8.578,0,0,1,528.841,311Z" transform="translate(-526.578 -300.191)"/><path class="a" d="M527.94,338.717a7.392,7.392,0,0,0,5.632,2.091,7.861,7.861,0,0,0,5.45-2.538,5.6,5.6,0,0,1-11.083.447Z" transform="translate(-527.189 -312.417)"/></svg>