<svg xmlns="http://www.w3.org/2000/svg" width="38.919" height="38.913" viewBox="0 0 38.919 38.913"><defs><style>.a{fill:none;stroke:#fff;stroke-miterlimit:10;}.b,.c{fill:#fff;}.c{font-size:6px;font-family:TimesNewRomanPSMT, Times New Roman;}</style></defs><circle class="a" cx="12.048" cy="12.048" r="12.048" transform="translate(2.389 19.411) rotate(-45)"/><path class="b" d="M498.09,518.319A2.714,2.714,0,0,1,500.8,515.6h1.517a19.887,19.887,0,0,0-.441-2.207l-1.407.579a2.711,2.711,0,0,1-2.074-5.009l1.4-.552a19.8,19.8,0,0,0-1.263-1.892l-1.07,1.1a2.73,2.73,0,1,1-3.862-3.861l1.07-1.07a19.178,19.178,0,0,0-1.892-1.269l-.552,1.385a2.714,2.714,0,0,1-5.009-2.08l.585-1.4a18.6,18.6,0,0,0-2.234-.441v1.517a2.714,2.714,0,0,1-5.423,0V498.89a18.751,18.751,0,0,0-2.207.441l.579,1.4a2.714,2.714,0,0,1-5.009,2.08l-.579-1.407a19.87,19.87,0,0,0-1.892,1.269l1.076,1.07a2.721,2.721,0,0,1-3.834,3.862l-1.076-1.1a20.892,20.892,0,0,0-1.263,1.892l1.4.552a2.711,2.711,0,0,1-2.074,5.009l-1.4-.579a18.756,18.756,0,0,0-.441,2.207h1.517a2.714,2.714,0,0,1,0,5.423H463.43a18.614,18.614,0,0,0,.441,2.234l1.4-.585a2.711,2.711,0,0,1,2.074,5.009l-1.4.607a20.819,20.819,0,0,0,1.263,1.887l1.076-1.07a2.721,2.721,0,0,1,3.834,3.862l-1.076,1.07a19.81,19.81,0,0,0,1.892,1.263l.579-1.4a2.711,2.711,0,1,1,5.009,2.074l-.579,1.407a19.911,19.911,0,0,0,2.207.441v-1.517a2.714,2.714,0,1,1,5.423,0V537.8a19.752,19.752,0,0,0,2.234-.441l-.59-1.451a2.711,2.711,0,0,1,5.009-2.074l.579,1.4a19.132,19.132,0,0,0,1.892-1.263l-1.07-1.07a2.731,2.731,0,0,1,3.862-3.861l1.07,1.07a19.723,19.723,0,0,0,1.263-1.887l-1.4-.585a2.711,2.711,0,0,1,2.074-5.009l1.407.585a19.746,19.746,0,0,0,.441-2.234h-1.517A2.709,2.709,0,0,1,498.09,518.319Zm-15.225,13.1a13.1,13.1,0,1,1,13.1-13.1,13.1,13.1,0,0,1-13.1,13.1Z" transform="translate(-463.43 -498.89)"/><text class="c" transform="translate(9.08 20.953)"><tspan x="0" y="0">GTESC</tspan></text></svg>