<svg xmlns="http://www.w3.org/2000/svg" width="45.264" height="16.192" viewBox="0 0 45.264 16.192"><defs><style>.a,.e,.f{fill:#fff;}.a{font-size:3px;}.a,.e{font-family:Helvetica;}.b{letter-spacing:0.019em;}.c{letter-spacing:-0.07em;}.d{letter-spacing:-0.04em;}.e{font-size:1px;letter-spacing:0.992em;}</style></defs><text class="a" transform="translate(0.264 13.7)"><tspan x="0" y="0">M</tspan><tspan class="b" y="0">E</tspan><tspan class="c" y="0">T</tspan><tspan y="0">AL</tspan><tspan class="d" y="0">L</tspan><tspan y="0">URGY &amp; ENGINEERING</tspan></text><text class="e" transform="translate(7.369 15.192)"><tspan x="0" y="0">LIMITED</tspan></text><path class="f" d="M227.75,576.548a5.566,5.566,0,0,1-1.605,4.193,5.963,5.963,0,0,1-4.33,1.556,6.576,6.576,0,0,1-4.5-1.512,5.516,5.516,0,0,1-1.842-4.352,6.476,6.476,0,0,1,1.655-4.529,5.671,5.671,0,0,1,4.413-1.876,7.078,7.078,0,0,1,1.755.221,3.469,3.469,0,0,1,1.439.756v-.761h2.333a24.46,24.46,0,0,0-.132,2.51c0,.182,0,.513.033.982s.033.783.033.921h-2.367a2.521,2.521,0,0,0-.965-1.594,2.89,2.89,0,0,0-1.787-.59,2.548,2.548,0,0,0-2.262,1.175,4.75,4.75,0,0,0-.684,2.659,4.049,4.049,0,0,0,.684,2.532,2.7,2.7,0,0,0,2.295,1.059,2.251,2.251,0,0,0,2.344-1.694h-2.278V576h5.754Z" transform="translate(-215.471 -570.024)"/><path class="f" d="M271.994,572.757V570.55l-2.758.05-1.34-.033h-.436v2.207h.232v7.271l-1.241-.033v2.245l2.758-.05,2.786.05v-2.207l-1.219-.033V572.79Z" transform="translate(-238.328 -570.26)"/><path class="f" d="M266.86,570.51h0Z" transform="translate(-238.319 -570.242)"/><path class="f" d="M266.46,574.59v.011l.331-.006Z" transform="translate(-238.332 -572.071)"/><path class="f" d="M246.977,579.122l-.243-.182.441-.48c-.248-.177-.485-.359-.734-.519a4.065,4.065,0,0,0-1.136-.513c-.05,0-.072-.033-.072-.088s.039-.061.083-.072a3.376,3.376,0,0,1,2.455.386l.083.05h0l.3-.325s-.309-1.2-.552-2.14c-.149-.552-.386-1.39-.7-2.51h.976V570.45c-.127,0-.552,0-1.2.039s-1.147.039-1.418.039l-1.28-.055h-1.4v2.262h.965c-.154.491-.408,1.3-.767,2.411-.248.816-.43,1.523-.645,2.273l.436-.375,1.1,1.065-.6.552.237.259-.226.2c.552.513,1.1,1.021,1.611,1.506l-.48.552-1.583-1.611-.2.226-.276-.243-.552.552-1.1-1.065.491-.463-.171-.149,1.054-1.01.11.083-1.368-4.728h1.1v-2.278l-2.819.077-1.385-.05h-.5c-.072.767,0,1.517,0,2.245h.127l3.095,9.466h3.376Z" transform="translate(-225.116 -570.215)"/><path class="f" d="M251.372,591.33l-.232.226h.474Z" transform="translate(-231.464 -579.577)"/><path class="f" d="M259.545,570.505c-.629.028-1.076.039-1.335.039l-1.175-.055h-1.269v2.262h1.1l-.739,2.416c-.3.954-.452,1.749-.645,2.389.292.281.491.552.783.849-.088.077-.182.166-.287.243s-.05.066,0,.121a3.073,3.073,0,0,1,.48,1.87,5.517,5.517,0,0,1-.088.6h-.132a4.672,4.672,0,0,0-1.1-1.859l-.474.4c-.066-.072-.127-.149-.193-.232l-1.87,1.87.85.778H256.4l3.04-9.461h1.225V570.45C260.544,570.467,260.174,570.478,259.545,570.505Z" transform="translate(-232.118 -570.215)"/></svg>