<svg xmlns="http://www.w3.org/2000/svg" width="48.99" height="33.519" viewBox="0 0 48.99 33.519"><defs><style>.a{fill:#fff;}.b{fill:none;stroke:#fff;stroke-linecap:round;stroke-linejoin:round;}</style></defs><g transform="translate(0.5 0.5)"><path class="a" d="M120.735,319.3c0-.127-.121-.254-.325-.37.072.193.138.392.2.585A.336.336,0,0,0,120.735,319.3Z" transform="translate(-72.246 -302.232)"/><path class="a" d="M57,319.3a.326.326,0,0,0,.116.215c.072-.193.132-.392.21-.585C57.1,319.051,57,319.173,57,319.3Z" transform="translate(-43.816 -302.232)"/><path class="a" d="M57.372,288.66l-.392.392-.574,1.136-.739,1.876-.552,1.683-.508,1.594-.458,1.5L53.8,298.1l-.414,1.611-.463,1.953-.524,2.295-1.7.48-1.616.463-1.528.458-1.34.4-1.043.3-.75.2.309-1.55.37-1.512.436-1.478.623-2.036.375-1.307.127-.585-.292-.557H46.1l-.833,2.422-.667,2.129-.519,1.848-.353,1.561-.193,1.28-1.125.348-1.3.474-1.484.59-1.66.717-2.074,1.054-1.5.816-.927.585-.359.348.292.574.6.132.888-.7,1.181-.756,1.467-.8L39.278,309l1.793-.734,1.357-.507.916-.281L43.2,308.5l-.061.872.039.954.094.861.287.314.188-.314.088-1.241.154-1.313.221-1.379,2.151-.673,2.036-.6,1.931-.524,1.826-.458-.37,1.859-.342,2-.32,2.146-.3,2.289-.276,2.438-.292,3.376-.022,1.589.182.474.281-.579.265-1.335.265-2.1.287-2.582.337-2.538.37-2.493.414-2.449.458-2.405.888-.237.645-.171.872-.2,1.087-.226-.292-.331-.739-.121-.778.044-.579.116-.839.188.436-1.975.353-1.484.27-1,.425-1.605.359-1.181.287-.761L56,294.027l.579-1.649.651-1.567.712-1.489-.243-.452Z" transform="translate(-33.1 -288.66)"/><path class="b" d="M57.372,288.66l-.392.392-.574,1.136-.739,1.876-.552,1.683-.508,1.594-.458,1.5L53.8,298.1l-.414,1.611-.463,1.953-.524,2.295-1.7.48-1.616.463-1.528.458-1.34.4-1.043.3-.75.2.309-1.55.37-1.512.436-1.478.623-2.036.375-1.307.127-.585-.292-.557H46.1l-.833,2.422-.667,2.129-.519,1.848-.353,1.561-.193,1.28-1.125.348-1.3.474-1.484.59-1.66.717-2.074,1.054-1.5.816-.927.585-.359.348.292.574.6.132.888-.7,1.181-.756,1.467-.8L39.278,309l1.793-.734,1.357-.507.916-.281L43.2,308.5l-.061.872.039.954.094.861.287.314.188-.314.088-1.241.154-1.313.221-1.379,2.151-.673,2.036-.6,1.931-.524,1.826-.458-.37,1.859-.342,2-.32,2.146-.3,2.289-.276,2.438-.292,3.376-.022,1.589.182.474.281-.579.265-1.335.265-2.1.287-2.582.337-2.538.37-2.493.414-2.449.458-2.405.888-.237.645-.171.872-.2,1.087-.226-.292-.331-.739-.121-.778.044-.579.116-.839.188.436-1.975.353-1.484.27-1,.425-1.605.359-1.181.287-.761L56,294.027l.579-1.649.651-1.567.712-1.489-.243-.452Z" transform="translate(-33.1 -288.66)"/><path class="a" d="M93.684,291.995l-.546-.5-.789-.248-1.633.265-1.638.557-1.638.85L85.8,294.058l-.463.359-1.214,1.164-1.076,1.147-.932,1.125-.789,1.114-.149.254-.949,1.622-.778,1.682-.607,1.732-.436,1.787-.259,1.842v.414l.342,1.958.7,1.418,1.065.866,1.429.32h.132l1.136-.055,1.169-.127,1.186-.188,1.34-.287,1.578-.513,1.82-.734.64-.325.883-.5,1.368-.927.458-.436.132-.254-.778.408-.8.392-.816.381-1.969.839-1.936.662-1.9.485-1.87.3-1.831.132-.2-.028-1-.408-.739-.75-.485-1.081-.221-1.412.248-2.03.469-1.958.679-1.9.9-1.831,1.114-1.771,1.329-1.7.2-.226,1.434-1.478,1.495-1.225,1.55-.976,1.616-.728,1.671-.474.844.072.535.513.05.287-.3.756-.265.359.662-.171.441-.276.325-.64.017-.3Z" transform="translate(-53.298 -289.821)"/><path class="b" d="M93.684,291.995l-.546-.5-.789-.248-1.633.265-1.638.557-1.638.85L85.8,294.058l-.463.359-1.214,1.164-1.076,1.147-.932,1.125-.789,1.114-.149.254-.949,1.622-.778,1.682-.607,1.732-.436,1.787-.259,1.842v.414l.342,1.958.7,1.418,1.065.866,1.429.32h.132l1.136-.055,1.169-.127,1.186-.188,1.34-.287,1.578-.513,1.82-.734.64-.325.883-.5,1.368-.927.458-.436.132-.254-.778.408-.8.392-.816.381-1.969.839-1.936.662-1.9.485-1.87.3-1.831.132-.2-.028-1-.408-.739-.75-.485-1.081-.221-1.412.248-2.03.469-1.958.679-1.9.9-1.831,1.114-1.771,1.329-1.7.2-.226,1.434-1.478,1.495-1.225,1.55-.976,1.616-.728,1.671-.474.844.072.535.513.05.287-.3.756-.265.359.662-.171.441-.276.325-.64.017-.3Z" transform="translate(-53.298 -289.821)"/></g></svg>