<svg xmlns="http://www.w3.org/2000/svg" width="264.028" height="193.253" viewBox="0 0 264.028 193.253"><defs><style>.a{fill:#27aae1;}.b,.f{fill:#fff;font-family:Helvetica;}.b{font-size:21px;}.c{letter-spacing:-0.02em;}.d{letter-spacing:-0.04em;}.e{letter-spacing:-0.07em;}.f{font-size:14px;}.g{letter-spacing:-0.03em;}.h{letter-spacing:-0.01em;}.i{letter-spacing:0.03em;}</style></defs><g transform="translate(-485.283 -2021.014)"><path class="a" d="M241.347,340.308a198.315,198.315,0,0,0,137.23-.578l62.712,167.149a376.166,376.166,0,0,1-261.769.9Z" transform="translate(306.92 1682.423)"/><path class="a" d="M309.674,532.353a379.168,379.168,0,0,1-130.794-23.5c.416-1.139,62.043-168.125,62.441-169.174a197.176,197.176,0,0,0,138.314-.578c.416,1.157,62.929,167.727,63.273,168.83a379.344,379.344,0,0,1-133.235,24.423ZM181.212,507.767c81.694,30.3,176.622,30.479,259.437-.9l-62.08-165.431a198.858,198.858,0,0,1-136.181.579Z" transform="translate(306.403 1681.914)"/><text class="b" transform="translate(547.616 2097.038)"><tspan x="0" y="0">INN</tspan><tspan class="c" y="0">O</tspan><tspan class="d" y="0">V</tspan><tspan class="e" y="0">A</tspan><tspan y="0">TION</tspan></text><text class="f" transform="translate(529.574 2116.081)"><tspan class="g" x="0" y="0">W</tspan><tspan y="0">e stri</tspan><tspan class="h" y="0">v</tspan><tspan y="0">e </tspan><tspan class="h" y="0">t</tspan><tspan y="0">o int</tspan><tspan class="h" y="0">r</tspan><tspan y="0">odu</tspan><tspan class="h" y="0">c</tspan><tspan y="0">e new </tspan><tspan x="0" y="16">methods </tspan><tspan class="h" y="16">t</tspan><tspan y="16">o imp</tspan><tspan class="h" y="16">rov</tspan><tspan y="16">e our </tspan><tspan x="0" y="32">se</tspan><tspan class="i" y="32">r</tspan><tspan y="32">vi</tspan><tspan class="h" y="32">c</tspan><tspan y="32">e</tspan><tspan class="h" y="32">s</tspan><tspan y="32">.</tspan></text></g></svg>