<svg xmlns="http://www.w3.org/2000/svg" width="250.054" height="249.729" viewBox="0 0 250.054 249.729"><defs><style>.a{fill:#a7be39;}.b,.c{fill:#fff;font-family:Helvetica;}.b{font-size:21px;}.c{font-size:14px;}.d{letter-spacing:-0.07em;}</style></defs><g transform="translate(-695.078 -1482.128)"><path class="a" d="M388.513,289.013a186.963,186.963,0,0,0-92.9-92.107L365.789,41.67a357.275,357.275,0,0,1,177.471,176.1Z" transform="translate(400.697 1441.651)"/><path class="a" d="M388.574,290.739A187.812,187.812,0,0,0,294.93,197.89c.47-1.049,70.5-155.922,70.92-156.88A359.371,359.371,0,0,1,544.984,218.734Zm-91.239-93.752a187.83,187.83,0,0,1,92.2,91.348l153.12-70.5A356.534,356.534,0,0,0,366.826,43.378Z" transform="translate(400.148 1441.118)"/><text class="b" transform="translate(759.706 1595.591)"><tspan x="0" y="0">INTEGRITY</tspan></text><text class="c" transform="translate(732.608 1613.948)"><tspan class="d" x="0" y="0">T</tspan><tspan y="0">o maintain sound ethical</tspan><tspan x="0" y="16">principles in all our dealings</tspan></text></g></svg>