<svg xmlns="http://www.w3.org/2000/svg" width="242.532" height="75.522" viewBox="0 0 242.532 75.522"><defs><style>.a{fill:#231f20;font-size:13px;font-family:Helvetica;letter-spacing:0.199em;}.b{fill:#008dd2;}.c{fill:#a7be39;}.d{fill:#0091d0;}</style></defs><g transform="translate(-221.14 -286.46)"><text class="a" transform="translate(274.68 358.982)"><tspan x="0" y="0">HOLDINGS LIMITED</tspan></text><rect class="b" width="34.075" height="1.837" transform="translate(237.65 353.765)"/><rect class="b" width="32.163" height="1.837" transform="translate(431.509 353.765)"/><path class="c" d="M269.378,338.46q-12.339,0-18.93-6.84-6.107-6.368-6.107-17.143,0-11.52,7.535-18.024,7.187-6.207,18.93-6.207c1.465,0,2.855.074,4.221.186a41.087,41.087,0,0,0-17.776-3.972h-.819c-19.489,0-35.291,13-35.291,29.035s15.8,29.035,35.291,29.035h.819a39.723,39.723,0,0,0,23.3-7.237A55.236,55.236,0,0,1,269.378,338.46Z" transform="translate(0)"/><path class="c" d="M286.685,314.282a25.472,25.472,0,0,0-5.958-16.137v.074h-.745a18.621,18.621,0,0,0-6.84-4.891,21.636,21.636,0,0,0-8.454-1.688q-8.876,0-14.213,5.586c-3.563,3.724-5.325,8.95-5.325,15.69s1.725,12.2,5.189,16.026,8.491,5.723,15.095,5.723a27.125,27.125,0,0,0,5.6-.584A19.083,19.083,0,0,0,276,332.356V314.977l2.979.211,2.992-.211v13.766a25.112,25.112,0,0,0,4.717-14.462Z" transform="translate(5.794 1.25)"/><path class="c" d="M308.382,327.223v3.5a22.346,22.346,0,0,1-5.561,2.93,18.038,18.038,0,0,1-6.107,1.043,15.554,15.554,0,0,1-11.607-4.481Q280.688,325.746,280.7,318q0-7.448,3.935-11.867a14.611,14.611,0,0,1,11.607-4.829,12.513,12.513,0,0,1,9.707,4.022q4.059,4.432,4.072,12.674l-13.779-.2h-9.571a16.137,16.137,0,0,0,2.781,9.856,10.477,10.477,0,0,0,8.962,4.183,12.414,12.414,0,0,0,6.033-1.6,19.154,19.154,0,0,0,3.935-3.016ZM286.6,315.281h18.061a16.311,16.311,0,0,0-1.7-8.193,7.212,7.212,0,0,0-6.778-3.724,8.392,8.392,0,0,0-7.2,3.724,13.742,13.742,0,0,0-2.334,8.193Z" transform="translate(14.374 3.578)"/><path class="c" d="M308.071,317.653a15.393,15.393,0,0,1,4.965-11.78,17.379,17.379,0,0,1,12.314-4.581,15.144,15.144,0,0,1,11.371,4.518,16.56,16.56,0,0,1,4.382,12.041,16.808,16.808,0,0,1-4.283,11.681q-4.667,5.152-12.686,5.152a15.393,15.393,0,0,1-11.507-4.643Q308.071,325.386,308.071,317.653Zm17.168-14.238a9.509,9.509,0,0,0-8.826,4.878,20.272,20.272,0,0,0-2.371,10.39,17.379,17.379,0,0,0,2.371,9.5,9.111,9.111,0,0,0,8.218,4.419q5.363,0,8.205-5.5a20.235,20.235,0,0,0,2.247-9.571,19.291,19.291,0,0,0-2.036-9.3,8.429,8.429,0,0,0-7.808-4.816Z" transform="translate(20.978 3.577)"/><path class="d" d="M381.383,290.36v46.488h-2.048l-3.55-4.183-29.3-32.461h-.67v36.57l-1.9-.2-1.9.273V290.36h2.656l32.188,34.993h.708V290.36l1.9.2Z" transform="translate(29.173 0.941)"/><path class="d" d="M408.7,327.225l-.062,3.488a22.641,22.641,0,0,1-5.574,2.93,18.037,18.037,0,0,1-6.107,1.043,15.554,15.554,0,0,1-11.607-4.481q-4.419-4.469-4.407-12.215,0-7.448,3.935-11.867a14.611,14.611,0,0,1,11.607-4.829,12.513,12.513,0,0,1,9.707,4.022q4.059,4.432,4.072,12.674l-13.779-.2h-9.571a16.262,16.262,0,0,0,2.781,9.856,10.5,10.5,0,0,0,8.962,4.183,12.413,12.413,0,0,0,6.033-1.6,18.846,18.846,0,0,0,4.009-3Zm-21.785-11.942H404.96a16.448,16.448,0,0,0-1.688-8.193,7.237,7.237,0,0,0-6.79-3.724,8.354,8.354,0,0,0-7.187,3.724,13.655,13.655,0,0,0-2.383,8.193Z" transform="translate(38.566 3.575)"/><path class="d" d="M411.83,337.731V286.7l2.706.2,2.719-.2v50.957l-2.719-.2Z" transform="translate(46.02 0.058)"/></g></svg>