<svg xmlns="http://www.w3.org/2000/svg" width="43.188" height="15.35" viewBox="0 0 43.188 15.35"><defs><style>.a,.d{fill:#fff;}.a{font-size:1px;font-family:Lato-Bold, Lato;font-weight:700;letter-spacing:0.7em;}.b{letter-spacing:0.67em;}.c{letter-spacing:0.678em;}</style></defs><text class="a" transform="translate(2.173 14.35)"><tspan x="0" y="0">AERIA</tspan><tspan class="b" y="0">L</tspan><tspan y="0" xml:space="preserve"> SO</tspan><tspan class="c" y="0">L</tspan><tspan y="0">UTIONS LIMITED</tspan></text><path class="d" d="M344.847,582.79a1.6,1.6,0,0,1,.309.513,1.892,1.892,0,0,1,.1.645,1.832,1.832,0,0,1-.651,1.445,2.361,2.361,0,0,1-1.605.552,3.066,3.066,0,0,1-.883-.138,3.413,3.413,0,0,1-.767-.336l-.2.342h-.375l-.066-2.262h.381a5.03,5.03,0,0,0,.27.756,2.581,2.581,0,0,0,.414.629,1.853,1.853,0,0,0,.552.441,1.688,1.688,0,0,0,.75.16,1.73,1.73,0,0,0,.552-.083,1,1,0,0,0,.386-.237.949.949,0,0,0,.221-.364,1.407,1.407,0,0,0,.072-.474,1.318,1.318,0,0,0-.221-.739,1.374,1.374,0,0,0-.667-.524l-.7-.265c-.259-.1-.485-.187-.673-.276a2.158,2.158,0,0,1-.872-.662,1.71,1.71,0,0,1-.309-1.059,1.655,1.655,0,0,1,.154-.706,1.842,1.842,0,0,1,.436-.579,1.913,1.913,0,0,1,.64-.381,2.15,2.15,0,0,1,.772-.138,2.245,2.245,0,0,1,.816.138,4.279,4.279,0,0,1,.656.325l.193-.314h.37l.039,2.207h-.375c-.072-.254-.149-.5-.232-.723a2.675,2.675,0,0,0-.331-.623,1.61,1.61,0,0,0-.491-.436,1.467,1.467,0,0,0-.706-.16,1.059,1.059,0,0,0-.756.287.894.894,0,0,0-.314.7,1.2,1.2,0,0,0,.2.706,1.467,1.467,0,0,0,.585.463c.226.11.452.2.667.287s.43.16.634.254a4.5,4.5,0,0,1,.552.27,2.443,2.443,0,0,1,.469.364Z" transform="translate(-340.71 -573.484)"/><path class="d" d="M356.87,585.95h-1.854a19.944,19.944,0,0,0-1.192-1.655q-.656-.822-1.374-1.589h-.116v2.3a.634.634,0,0,0,.055.276.435.435,0,0,0,.21.2,2.116,2.116,0,0,0,.281.077,1.459,1.459,0,0,0,.336.05v.331H350.46v-.331l.309-.028a.861.861,0,0,0,.287-.055.381.381,0,0,0,.2-.176.6.6,0,0,0,.066-.287V580.29a.7.7,0,0,0-.055-.276.419.419,0,0,0-.215-.193,2.05,2.05,0,0,0-.3-.1,1.377,1.377,0,0,0-.3-.055v-.331h2.758v.331a2.048,2.048,0,0,0-.325.039,2.84,2.84,0,0,0-.292.072.325.325,0,0,0-.21.188.69.69,0,0,0-.055.281v2.284h.077c.281-.237.552-.48.827-.739a9.466,9.466,0,0,0,.734-.767,7.915,7.915,0,0,0,.552-.673.877.877,0,0,0,.171-.452c0-.044-.033-.083-.088-.116a1.171,1.171,0,0,0-.2-.072l-.232-.033h-.165v-.331h2.477v.331h-.3l-.171.033a1.528,1.528,0,0,0-.336.116.925.925,0,0,0-.287.2c-.32.364-.651.739-1,1.1s-.69.745-1.032,1.065c.469.552.861.993,1.169,1.379s.64.794.987,1.236a2.307,2.307,0,0,0,.4.4,2.4,2.4,0,0,0,.342.226,1,1,0,0,0,.3.088,1.807,1.807,0,0,0,.3.039Z" transform="translate(-345.081 -573.609)"/><path class="d" d="M367.587,579.727a.941.941,0,0,0-.254.061.9.9,0,0,0-.243.116,1.757,1.757,0,0,0-.248.171,2.939,2.939,0,0,0-.254.32c-.243.342-.463.684-.667,1.037s-.463.794-.772,1.335a2.491,2.491,0,0,0-.226.48,1.864,1.864,0,0,0-.055.552v1.263a.6.6,0,0,0,.066.287.463.463,0,0,0,.232.2,2.714,2.714,0,0,0,.348.094,2.324,2.324,0,0,0,.408.055v.331h-3.095V585.7l.392-.033a1.541,1.541,0,0,0,.364-.066.458.458,0,0,0,.232-.193.7.7,0,0,0,.061-.3V583.5a.867.867,0,0,0-.094-.276c-.061-.132-.132-.276-.215-.441-.188-.359-.392-.75-.618-1.169s-.425-.778-.59-1.1a2.383,2.383,0,0,0-.276-.4,1.232,1.232,0,0,0-.27-.237.927.927,0,0,0-.27-.11,2.066,2.066,0,0,0-.281-.044v-.331h2.824v.331a2.86,2.86,0,0,0-.673.066c-.132.033-.2.088-.2.154a.286.286,0,0,0,.033.1.632.632,0,0,0,.077.177c.033.072.088.171.143.276l.16.3c.143.276.292.552.447.822l.59,1.1c.491-.783.861-1.4,1.1-1.837a2.879,2.879,0,0,0,.386-.789.221.221,0,0,0-.077-.171.624.624,0,0,0-.21-.1,2.3,2.3,0,0,0-.292-.05h-.3v-.331h2.3Z" transform="translate(-349.924 -573.636)"/><path class="d" d="M378.708,579.731a1.146,1.146,0,0,0-.3.055,1.026,1.026,0,0,0-.281.116.745.745,0,0,0-.254.254,2.207,2.207,0,0,0-.188.364c-.21.491-.524,1.263-.938,2.306s-.844,2.135-1.285,3.266h-.386c-.447-1.2-.883-2.356-1.3-3.475l-.85-2.256a.883.883,0,0,0-.149-.254,1.1,1.1,0,0,0-.248-.21.941.941,0,0,0-.276-.116,1.5,1.5,0,0,0-.259-.05V579.4h2.758v.331a3.912,3.912,0,0,0-.59.066c-.16.039-.237.1-.237.182a.492.492,0,0,0,0,.121.779.779,0,0,0,.033.116c.116.3.3.8.552,1.49s.629,1.655,1.1,2.935c.237-.552.508-1.252.816-2.036s.513-1.318.618-1.611a4.17,4.17,0,0,0,.177-.59,1.8,1.8,0,0,0,.028-.265.215.215,0,0,0-.094-.177.839.839,0,0,0-.254-.127,2.118,2.118,0,0,0-.314-.066,3,3,0,0,0-.32-.039V579.4h2.46Z" transform="translate(-354.739 -573.641)"/><path class="d" d="M387.443,585.959H384.47v-.331l.364-.028a1.237,1.237,0,0,0,.336-.055.436.436,0,0,0,.221-.165.552.552,0,0,0,.072-.292V580.3a.552.552,0,0,0-.055-.27.392.392,0,0,0-.237-.187,3.553,3.553,0,0,0-.353-.1,2.208,2.208,0,0,0-.348-.055v-.331h2.973v.331a2.15,2.15,0,0,0-.342.033,2.35,2.35,0,0,0-.348.077.364.364,0,0,0-.237.182.584.584,0,0,0-.061.281v4.783a.551.551,0,0,0,.066.27.458.458,0,0,0,.232.193,2.348,2.348,0,0,0,.314.077,1.8,1.8,0,0,0,.375.05Z" transform="translate(-360.33 -573.618)"/><path class="d" d="M396.88,584.011l-.127,1.947H391.27v-.331a1.415,1.415,0,0,0,.37-.039,1.379,1.379,0,0,0,.3-.061.463.463,0,0,0,.21-.182.634.634,0,0,0,.055-.287v-4.75a.723.723,0,0,0-.05-.276.4.4,0,0,0-.215-.193,1.893,1.893,0,0,0-.336-.1,2.218,2.218,0,0,0-.336-.055v-.331h5.114v1.594h-.348a2.256,2.256,0,0,0-.4-.756,1.037,1.037,0,0,0-.59-.436l-.348-.028H393.2v2.626h.745a1.506,1.506,0,0,0,.524-.066.762.762,0,0,0,.292-.226,1.319,1.319,0,0,0,.177-.364,2.7,2.7,0,0,0,.094-.425h.348v2.587h-.348a1.93,1.93,0,0,0-.1-.469,1.253,1.253,0,0,0-.171-.364.657.657,0,0,0-.331-.237,1.659,1.659,0,0,0-.485-.055H393.2v1.98a2.037,2.037,0,0,0,.044.469.463.463,0,0,0,.16.265.756.756,0,0,0,.331.11,5.389,5.389,0,0,0,.6,0h.833a3.268,3.268,0,0,0,.364-.072.585.585,0,0,0,.27-.132,3.057,3.057,0,0,0,.447-.679,4.01,4.01,0,0,0,.3-.668Z" transform="translate(-363.379 -573.618)"/><path class="d" d="M411.315,579.731a.9.9,0,0,0-.27.055,1.032,1.032,0,0,0-.287.127.908.908,0,0,0-.265.232,1.256,1.256,0,0,0-.171.375c-.221.717-.48,1.55-.772,2.51s-.607,1.98-.943,3.062h-.43L406.521,581l-1.738,5.092h-.408l-.96-3.382-.656-2.35a.812.812,0,0,0-.127-.259.884.884,0,0,0-.221-.2.8.8,0,0,0-.27-.116,1.522,1.522,0,0,0-.281-.05V579.4h2.692v.331a4.084,4.084,0,0,0-.6.066c-.166.039-.248.094-.248.177a.549.549,0,0,0,0,.121v.121q.1.414.381,1.357c.182.629.452,1.578.805,2.835l1.655-4.915H407l1.655,5.02c.226-.772.419-1.445.579-2.025s.3-1.07.4-1.484c.072-.287.121-.485.138-.59a1.362,1.362,0,0,0,0-.276q0-.16-.215-.265a1.959,1.959,0,0,0-.7-.143V579.4h2.455Z" transform="translate(-368.127 -573.641)"/><path class="d" d="M365.28,574.943a2.041,2.041,0,0,0,1.754.055c1-.336,1.98-.728,2.962-1.1a8.743,8.743,0,0,1,3.4-.7,8.887,8.887,0,0,1,2.907.662l2.841,1.1a2.442,2.442,0,0,0,.287.083,2.206,2.206,0,0,0,1.682-.083.745.745,0,0,1-.822.552,5.461,5.461,0,0,1-1.4-.254c-1.1-.386-2.162-.811-3.222-1.252a6.427,6.427,0,0,0-5.174.094c-.982.414-1.969.811-2.973,1.158a5.461,5.461,0,0,1-1.4.254A.772.772,0,0,1,365.28,574.943Z" transform="translate(-351.726 -570.861)"/><path class="d" d="M365.236,572.953a2.047,2.047,0,0,1-1.909.116c-.281-.171-.325-.436-.044-.634a8.113,8.113,0,0,1,1.037-.552,1.754,1.754,0,0,0,.3-.154h-.43c0-.193.044-.364.072-.618-.3.066-.552.094-.783.171a6.528,6.528,0,0,1-2.372.314l3.382-.872-.188-.077s1.181-.171,1.749-.232a3.171,3.171,0,0,1,.508-.055c.121,0,.872.336-.64.706a9.931,9.931,0,0,1-1.247.094c-.055.552,0,.552.519.436a23.437,23.437,0,0,1,4.744-.839,2.461,2.461,0,0,1,.772.066c-.789.16-1.583.292-2.361.485-1,.243-1.986.518-2.973.8a2.522,2.522,0,0,0-.64.3c-.226.149-.2.287.05.4A2.575,2.575,0,0,0,365.236,572.953Z" transform="translate(-349.856 -569.588)"/><path class="d" d="M386.647,572.944a2.046,2.046,0,0,0,1.909.116c.281-.171.325-.436.044-.634a8.127,8.127,0,0,0-1.037-.552,1.706,1.706,0,0,1-.3-.154h.436c-.028-.193-.05-.364-.077-.618.3.066.552.094.783.171a6.527,6.527,0,0,0,2.372.314l-3.387-.883.188-.077s-1.181-.171-1.749-.232a3.178,3.178,0,0,0-.508-.055c-.121,0-.872.336.64.706a9.92,9.92,0,0,0,1.247.094c.055.552,0,.552-.519.436a23.364,23.364,0,0,0-4.744-.838,2.41,2.41,0,0,0-.767.066c.783.16,1.578.292,2.356.485,1,.243,1.986.519,2.973.8a2.52,2.52,0,0,1,.64.3c.226.149.2.287-.05.4A1.892,1.892,0,0,1,386.647,572.944Z" transform="translate(-358.855 -569.579)"/><path class="d" d="M371.207,569.534h-.232v-.364H369v-.116l4.193-.094c-.237.309-.348.32-1.942.3l-.039.039Z" transform="translate(-353.394 -568.96)"/><path class="d" d="M384.844,569.185v.32c-.3.127-.21-.1-.248-.254a3.492,3.492,0,0,1-1.986-.188,23.38,23.38,0,0,1,4.215.055,5.808,5.808,0,0,1-1.98.066Z" transform="translate(-359.496 -568.975)"/></svg>